#N canvas 0 23 535 668 10;
#X obj 33 -123 notein;
#X obj 33 -56 pack 0 0 0;
#X obj 310 -20 vsl 15 128 0 1 0 0 empty empty empty 0 -9 0 10 -204786
-1 -1 9823 1;
#X obj 33 237 *~;
#X obj 382 -18 vsl 20 80 0 300 0 0 empty empty atk 0 -9 0 10 -4034
-1 -1 118 1;
#X obj 411 -17 vsl 20 80 0 500 0 0 empty empty dec 0 -9 0 10 -4034
-1 -1 395 1;
#X obj 441 -17 vsl 20 80 0 1 0 0 empty empty sus 0 -9 0 10 -4034 -1
-1 2370 1;
#X obj 471 -17 vsl 20 80 0 1000 0 0 empty empty rel 0 -9 0 10 -4034
-1 -1 1580 1;
#X obj 382 71 s a;
#X obj 411 71 s d;
#X obj 441 71 s s;
#X obj 471 71 s r;
#X obj 33 -89 poly 4 1;
#X obj 33 -26 route 1 2 3 4;
#N canvas 233 23 1133 668 output-mixer 0;
#X obj 105 103 cnv 15 390 190 empty empty THE-MAESTRO 5 28 1 14 -233017
-66577 0;
#X obj 281 203 vu 10 80 empty empty -1 -8 0 10 -66577 -1 0 0;
#X obj 294 203 vu 10 80 empty empty -1 -8 0 10 -66577 -1 0 0;
#X obj -628 280 inlet~;
#X obj -607 344 *~;
#X obj -572 311 line~;
#X msg -572 286 \$1 100;
#X obj -487 221 inlet~;
#X obj -461 285 *~;
#X obj -426 252 line~;
#X msg -426 227 \$1 100;
#X obj -316 268 inlet~;
#X obj -290 332 *~;
#X obj -255 299 line~;
#X msg -255 274 \$1 100;
#X obj -33 332 *~;
#X obj 2 299 line~;
#X msg 2 274 \$1 100;
#X obj -60 271 inlet~;
#X obj -464 624 *~;
#X obj -420 513 / 127;
#X obj -420 581 line~;
#X msg -420 556 \$1 100;
#X obj -366 622 *~;
#N canvas 150 111 447 424 channel-one 0;
#X obj 262 274 *~;
#X obj 98 273 *~;
#X obj 277 150 / 127;
#X obj 277 199 line~;
#X msg 277 174 \$1 10;
#X obj 113 197 / 127;
#X obj 113 246 line~;
#X msg 113 221 \$1 10;
#X msg 113 148 127 \$1;
#X obj 113 173 -;
#X obj 98 35 inlet~;
#X obj 262 34 inlet~;
#X obj 113 108 inlet;
#X obj 277 108 inlet;
#X obj 98 330 outlet~;
#X obj 262 332 outlet~;
#X connect 0 0 15 0;
#X connect 1 0 14 0;
#X connect 2 0 4 0;
#X connect 3 0 0 1;
#X connect 4 0 3 0;
#X connect 5 0 7 0;
#X connect 6 0 1 1;
#X connect 7 0 6 0;
#X connect 8 0 9 0;
#X connect 9 0 5 0;
#X connect 10 0 1 0;
#X connect 11 0 0 0;
#X connect 12 0 8 0;
#X connect 13 0 2 0;
#X restore -625 441 pd channel-one;
#N canvas 150 111 447 424 channel-two 0;
#X obj 262 274 *~;
#X obj 98 273 *~;
#X obj 277 150 / 127;
#X obj 277 199 line~;
#X msg 277 174 \$1 10;
#X obj 113 197 / 127;
#X obj 113 246 line~;
#X msg 113 221 \$1 10;
#X msg 113 148 127 \$1;
#X obj 113 173 -;
#X obj 98 35 inlet~;
#X obj 262 34 inlet~;
#X obj 113 108 inlet;
#X obj 277 108 inlet;
#X obj 98 330 outlet~;
#X obj 262 332 outlet~;
#X connect 0 0 15 0;
#X connect 1 0 14 0;
#X connect 2 0 4 0;
#X connect 3 0 0 1;
#X connect 4 0 3 0;
#X connect 5 0 7 0;
#X connect 6 0 1 1;
#X connect 7 0 6 0;
#X connect 8 0 9 0;
#X connect 9 0 5 0;
#X connect 10 0 1 0;
#X connect 11 0 0 0;
#X connect 12 0 8 0;
#X connect 13 0 2 0;
#X restore -482 385 pd channel-two;
#X obj -521 641 env~;
#X obj -331 639 env~;
#N canvas 150 111 447 424 channel-three 0;
#X obj 262 274 *~;
#X obj 98 273 *~;
#X obj 277 150 / 127;
#X obj 277 199 line~;
#X msg 277 174 \$1 10;
#X obj 113 197 / 127;
#X obj 113 246 line~;
#X msg 113 221 \$1 10;
#X msg 113 148 127 \$1;
#X obj 113 173 -;
#X obj 98 35 inlet~;
#X obj 262 34 inlet~;
#X obj 113 108 inlet;
#X obj 277 108 inlet;
#X obj 98 330 outlet~;
#X obj 262 332 outlet~;
#X connect 0 0 15 0;
#X connect 1 0 14 0;
#X connect 2 0 4 0;
#X connect 3 0 0 1;
#X connect 4 0 3 0;
#X connect 5 0 7 0;
#X connect 6 0 1 1;
#X connect 7 0 6 0;
#X connect 8 0 9 0;
#X connect 9 0 5 0;
#X connect 10 0 1 0;
#X connect 11 0 0 0;
#X connect 12 0 8 0;
#X connect 13 0 2 0;
#X restore -290 439 pd channel-three;
#N canvas 150 111 447 424 channel-four 0;
#X obj 262 274 *~;
#X obj 98 273 *~;
#X obj 277 150 / 127;
#X obj 277 199 line~;
#X msg 277 174 \$1 10;
#X obj 113 197 / 127;
#X obj 113 246 line~;
#X msg 113 221 \$1 10;
#X msg 113 148 127 \$1;
#X obj 113 173 -;
#X obj 98 35 inlet~;
#X obj 262 34 inlet~;
#X obj 113 108 inlet;
#X obj 277 108 inlet;
#X obj 98 330 outlet~;
#X obj 262 332 outlet~;
#X connect 0 0 15 0;
#X connect 1 0 14 0;
#X connect 2 0 4 0;
#X connect 3 0 0 1;
#X connect 4 0 3 0;
#X connect 5 0 7 0;
#X connect 6 0 1 1;
#X connect 7 0 6 0;
#X connect 8 0 9 0;
#X connect 9 0 5 0;
#X connect 10 0 1 0;
#X connect 11 0 0 0;
#X connect 12 0 8 0;
#X connect 13 0 2 0;
#X restore -10 409 pd channel-four;
#X obj -580 127 inlet~;
#X obj -580 194 snapshot~;
#X obj -581 220 t b f;
#X obj -598 411 +;
#X obj -544 410 +;
#X obj -580 163 *~ 127;
#X obj -433 80 inlet~;
#X obj -433 147 snapshot~;
#X obj -434 173 t b f;
#X obj -433 116 *~ 127;
#X obj -455 361 +;
#X obj -401 360 +;
#X obj -210 121 inlet~;
#X obj -210 188 snapshot~;
#X obj -211 214 t b f;
#X obj -210 157 *~ 127;
#X obj -260 406 +;
#X obj -206 405 +;
#X obj -10 132 inlet~;
#X obj -10 199 snapshot~;
#X obj -11 225 t b f;
#X obj -10 168 *~ 127;
#X obj 16 376 +;
#X obj 70 375 +;
#X obj -464 709 dac~ 1 2;
#X obj 106 103 cnv 3 10 10 empty empty CH1 0 5 1 7 -228856 -66577 0
;
#X obj 123 103 cnv 3 10 10 empty empty LOP1 0 5 1 7 -228856 -66577
0;
#X obj 149 103 cnv 3 10 10 empty empty CH2 0 5 1 7 -228856 -66577 0
;
#X obj 175 103 cnv 3 10 10 empty empty LOP2 0 5 1 7 -228856 -66577
0;
#X obj 202 103 cnv 3 10 10 empty empty CH3 0 5 1 7 -228856 -66577 0
;
#X obj 228 103 cnv 3 10 10 empty empty HIP3 0 5 1 7 -228856 -66577
0;
#X obj 255 103 cnv 3 10 10 empty empty CH4 0 5 1 7 -228856 -66577 0
;
#X obj 279 103 cnv 3 10 10 empty empty HIP4 0 5 1 7 -228856 -66577
0;
#X obj -420 536 * 1;
#X obj 122 416 inlet~;
#X obj 139 539 *~;
#X obj 178 514 line~;
#X msg 178 489 \$1 100;
#X obj 170 330 inlet~;
#X obj 170 397 snapshot~;
#X obj 175 433 t b f;
#X obj 152 570 +;
#X obj 206 569 +;
#X obj 170 366 *~ 127;
#X obj 178 465 / 64;
#X text 190 310 PAN 5;
#N canvas 150 111 447 424 channel-five 0;
#X obj 262 274 *~;
#X obj 98 273 *~;
#X obj 277 150 / 127;
#X obj 277 199 line~;
#X msg 277 174 \$1 10;
#X obj 113 197 / 127;
#X obj 113 246 line~;
#X msg 113 221 \$1 10;
#X msg 113 148 127 \$1;
#X obj 113 173 -;
#X obj 98 35 inlet~;
#X obj 262 34 inlet~;
#X obj 113 108 inlet;
#X obj 277 108 inlet;
#X obj 98 330 outlet~;
#X obj 262 332 outlet~;
#X connect 0 0 15 0;
#X connect 1 0 14 0;
#X connect 2 0 4 0;
#X connect 3 0 0 1;
#X connect 4 0 3 0;
#X connect 5 0 7 0;
#X connect 6 0 1 1;
#X connect 7 0 6 0;
#X connect 8 0 9 0;
#X connect 9 0 5 0;
#X connect 10 0 1 0;
#X connect 11 0 0 0;
#X connect 12 0 8 0;
#X connect 13 0 2 0;
#X restore 125 598 pd channel-five;
#X obj 125 702 throw~ sumL;
#X obj 212 699 throw~ sumR;
#X obj -503 580 catch~ sumL;
#X obj -365 574 catch~ sumR;
#X obj -104 652 throw~ sumL;
#X obj 7 648 throw~ sumR;
#X obj -289 667 throw~ sumL;
#X obj -202 658 throw~ sumR;
#X obj -482 464 throw~ sumL;
#X obj -400 468 throw~ sumR;
#X obj -625 563 throw~ sumL;
#X obj -544 562 throw~ sumR;
#X obj 311 481 inlet~;
#X obj 332 545 *~;
#X obj 367 512 line~;
#X msg 367 487 \$1 100;
#X obj 359 328 inlet~;
#X obj 359 395 snapshot~;
#X obj 358 421 t b f;
#X obj 364 549 +;
#X obj 418 548 +;
#X obj 359 364 *~ 127;
#X obj 367 463 / 64;
#X obj 314 703 throw~ sumL;
#X obj 401 700 throw~ sumR;
#X text 362 308 PAN 6;
#X text 118 397 CH 5;
#X text 307 462 CH 6;
#X text -318 250 CH 3;
#X text -486 204 CH 2;
#X text -632 261 CH 1;
#X obj 475 478 inlet~;
#X obj 496 542 *~;
#X obj 531 509 line~;
#X msg 531 484 \$1 100;
#X obj 523 325 inlet~;
#X obj 523 392 snapshot~;
#X obj 522 418 t b f;
#X obj 505 609 +;
#X obj 559 608 +;
#X obj 523 361 *~ 127;
#X obj 531 460 / 64;
#X obj 478 667 throw~ sumL;
#X obj 565 664 throw~ sumR;
#X text 471 459 CH 7;
#X text 526 314 PAN 7;
#X obj 618 409 inlet~;
#X obj 639 473 *~;
#X obj 674 440 line~;
#X msg 674 415 \$1 100;
#X obj 666 256 inlet~;
#X obj 666 323 snapshot~;
#X obj 665 349 t b f;
#X obj 648 540 +;
#X obj 702 539 +;
#X obj 666 292 *~ 127;
#X obj 674 391 / 64;
#X obj 621 598 throw~ sumL;
#X obj 708 595 throw~ sumR;
#X text 614 391 CH 8;
#X text 669 236 PAN 8;
#X obj 407 120 tgl 30 1 empty empty empty 17 7 0 10 -262144 -1 -1 1
1;
#X obj 451 120 bng 30 250 50 0 empty empty empty 17 7 0 10 -262144
-1 -1;
#X obj 406 152 cnv 15 75 10 empty empty XODULAR 0 12 1 16 -228856 -66577
0;
#X obj 406 171 cnv 15 75 10 empty empty ECOSYSTEM 0 12 1 12 -228856
-66577 0;
#X obj 308 103 cnv 3 10 10 empty empty CH5 0 5 1 7 -228856 -66577 0
;
#X obj 331 103 cnv 3 10 10 empty empty PAN5 0 5 1 7 -228856 -66577
0;
#X obj 360 103 cnv 3 10 10 empty empty CH6 0 5 1 7 -228856 -66577 0
;
#X obj 383 103 cnv 3 10 10 empty empty PAN6 0 5 1 7 -228856 -66577
0;
#X obj 413 103 cnv 3 10 10 empty empty CH7 0 5 1 7 -228856 -66577 0
;
#X obj 434 103 cnv 3 10 10 empty empty PAN7 0 5 1 7 -228856 -66577
0;
#X obj 464 103 cnv 3 10 10 empty empty CH8 0 5 1 7 -228856 -66577 0
;
#X obj 486 103 cnv 3 10 10 empty empty P8 0 5 1 7 -228856 -66577 0
;
#N canvas 150 111 447 424 channel-six 0;
#X obj 262 274 *~;
#X obj 98 273 *~;
#X obj 277 150 / 127;
#X obj 277 199 line~;
#X msg 277 174 \$1 10;
#X obj 113 197 / 127;
#X obj 113 246 line~;
#X msg 113 221 \$1 10;
#X msg 113 148 127 \$1;
#X obj 113 173 -;
#X obj 98 35 inlet~;
#X obj 262 34 inlet~;
#X obj 113 108 inlet;
#X obj 277 108 inlet;
#X obj 98 330 outlet~;
#X obj 262 332 outlet~;
#X connect 0 0 15 0;
#X connect 1 0 14 0;
#X connect 2 0 4 0;
#X connect 3 0 0 1;
#X connect 4 0 3 0;
#X connect 5 0 7 0;
#X connect 6 0 1 1;
#X connect 7 0 6 0;
#X connect 8 0 9 0;
#X connect 9 0 5 0;
#X connect 10 0 1 0;
#X connect 11 0 0 0;
#X connect 12 0 8 0;
#X connect 13 0 2 0;
#X restore 329 589 pd channel-six;
#N canvas 150 111 447 424 channel-seven 0;
#X obj 262 274 *~;
#X obj 98 273 *~;
#X obj 277 150 / 127;
#X obj 277 199 line~;
#X msg 277 174 \$1 10;
#X obj 113 197 / 127;
#X obj 113 246 line~;
#X msg 113 221 \$1 10;
#X msg 113 148 127 \$1;
#X obj 113 173 -;
#X obj 98 35 inlet~;
#X obj 262 34 inlet~;
#X obj 113 108 inlet;
#X obj 277 108 inlet;
#X obj 98 330 outlet~;
#X obj 262 332 outlet~;
#X connect 0 0 15 0;
#X connect 1 0 14 0;
#X connect 2 0 4 0;
#X connect 3 0 0 1;
#X connect 4 0 3 0;
#X connect 5 0 7 0;
#X connect 6 0 1 1;
#X connect 7 0 6 0;
#X connect 8 0 9 0;
#X connect 9 0 5 0;
#X connect 10 0 1 0;
#X connect 11 0 0 0;
#X connect 12 0 8 0;
#X connect 13 0 2 0;
#X restore 478 639 pd channel-seven;
#N canvas 150 111 447 424 channel-eight 0;
#X obj 262 274 *~;
#X obj 98 273 *~;
#X obj 277 150 / 127;
#X obj 277 199 line~;
#X msg 277 174 \$1 10;
#X obj 113 197 / 127;
#X obj 113 246 line~;
#X msg 113 221 \$1 10;
#X msg 113 148 127 \$1;
#X obj 113 173 -;
#X obj 98 35 inlet~;
#X obj 262 34 inlet~;
#X obj 113 108 inlet;
#X obj 277 108 inlet;
#X obj 98 330 outlet~;
#X obj 262 332 outlet~;
#X connect 0 0 15 0;
#X connect 1 0 14 0;
#X connect 2 0 4 0;
#X connect 3 0 0 1;
#X connect 4 0 3 0;
#X connect 5 0 7 0;
#X connect 6 0 1 1;
#X connect 7 0 6 0;
#X connect 8 0 9 0;
#X connect 9 0 5 0;
#X connect 10 0 1 0;
#X connect 11 0 0 0;
#X connect 12 0 8 0;
#X connect 13 0 2 0;
#X restore 621 570 pd channel-eight;
#N canvas 292 279 631 396 delay-fx 0;
#X obj 574 232 inlet~;
#X obj 206 63 inlet;
#X obj 206 85 / 127;
#X obj 206 107 * 900;
#X obj 206 151 sig~;
#X obj 208 334 outlet~;
#X obj 206 208 *~;
#X obj 386 11 inlet;
#X obj 389 174 pack f 50;
#X obj 389 196 line~;
#X obj 470 351 delwrite~ CH5FX1 100;
#X obj 206 174 vd~ CH5FX1;
#X obj 471 302 *~;
#X obj 387 47 t f f;
#X obj 485 96 / 127;
#X obj 485 118 * 0.9;
#X obj 485 139 moses 0.99;
#X obj 485 161 pack f 50;
#X obj 485 183 line~;
#X obj 206 129 + 10;
#X obj 389 152 / 127;
#X connect 0 0 10 0;
#X connect 1 0 2 0;
#X connect 2 0 3 0;
#X connect 3 0 19 0;
#X connect 4 0 11 0;
#X connect 6 0 5 0;
#X connect 6 0 12 0;
#X connect 7 0 13 0;
#X connect 8 0 9 0;
#X connect 9 0 6 1;
#X connect 11 0 6 0;
#X connect 12 0 10 0;
#X connect 13 0 20 0;
#X connect 13 1 14 0;
#X connect 14 0 15 0;
#X connect 15 0 16 0;
#X connect 16 0 17 0;
#X connect 17 0 18 0;
#X connect 18 0 12 1;
#X connect 19 0 4 0;
#X connect 20 0 8 0;
#X restore 138 641 pd delay-fx;
#N canvas 125 217 631 396 delay-fx 0;
#X obj 574 232 inlet~;
#X obj 206 29 inlet;
#X obj 206 51 / 127;
#X obj 206 73 * 900;
#X obj 206 151 sig~;
#X obj 208 334 outlet~;
#X obj 206 208 *~;
#X obj 386 11 inlet;
#X obj 389 174 pack f 50;
#X obj 389 196 line~;
#X obj 471 302 *~;
#X obj 387 47 t f f;
#X obj 485 96 / 127;
#X obj 485 118 * 0.9;
#X obj 485 139 moses 0.99;
#X obj 485 161 pack f 50;
#X obj 485 183 line~;
#X obj 206 174 vd~ CH5FX2;
#X obj 470 351 delwrite~ CH5FX2 100;
#X obj 206 95 + 20;
#X obj 389 152 / 127;
#X connect 0 0 18 0;
#X connect 1 0 2 0;
#X connect 2 0 3 0;
#X connect 3 0 19 0;
#X connect 4 0 17 0;
#X connect 6 0 5 0;
#X connect 6 0 10 0;
#X connect 7 0 11 0;
#X connect 8 0 9 0;
#X connect 9 0 6 1;
#X connect 10 0 18 0;
#X connect 11 0 20 0;
#X connect 11 1 12 0;
#X connect 12 0 13 0;
#X connect 13 0 14 0;
#X connect 14 0 15 0;
#X connect 15 0 16 0;
#X connect 16 0 10 1;
#X connect 17 0 6 0;
#X connect 19 0 4 0;
#X connect 20 0 8 0;
#X restore 226 639 pd delay-fx;
#N canvas 292 279 631 396 delay-fx 0;
#X obj 574 232 inlet~;
#X obj 206 63 inlet;
#X obj 206 85 / 127;
#X obj 206 107 * 900;
#X obj 206 151 sig~;
#X obj 208 334 outlet~;
#X obj 206 208 *~;
#X obj 386 11 inlet;
#X obj 389 174 pack f 50;
#X obj 389 196 line~;
#X obj 471 302 *~;
#X obj 387 47 t f f;
#X obj 485 96 / 127;
#X obj 485 118 * 0.9;
#X obj 485 139 moses 0.99;
#X obj 485 161 pack f 50;
#X obj 485 183 line~;
#X obj 206 174 vd~ CH6FX1;
#X obj 470 351 delwrite~ CH6FX1 100;
#X obj 205 129 + 30;
#X obj 389 152 / 127;
#X connect 0 0 18 0;
#X connect 1 0 2 0;
#X connect 2 0 3 0;
#X connect 3 0 19 0;
#X connect 4 0 17 0;
#X connect 6 0 5 0;
#X connect 6 0 10 0;
#X connect 7 0 11 0;
#X connect 8 0 9 0;
#X connect 9 0 6 1;
#X connect 10 0 18 0;
#X connect 11 0 20 0;
#X connect 11 1 12 0;
#X connect 12 0 13 0;
#X connect 13 0 14 0;
#X connect 14 0 15 0;
#X connect 15 0 16 0;
#X connect 16 0 10 1;
#X connect 17 0 6 0;
#X connect 19 0 4 0;
#X connect 20 0 8 0;
#X restore 304 635 pd delay-fx;
#N canvas 292 279 631 396 delay-fx 0;
#X obj 574 232 inlet~;
#X obj 206 63 inlet;
#X obj 206 85 / 127;
#X obj 206 107 * 900;
#X obj 206 151 sig~;
#X obj 208 334 outlet~;
#X obj 206 208 *~;
#X obj 386 11 inlet;
#X obj 389 174 pack f 50;
#X obj 389 196 line~;
#X obj 471 302 *~;
#X obj 387 47 t f f;
#X obj 485 96 / 127;
#X obj 485 118 * 0.9;
#X obj 485 139 moses 0.99;
#X obj 485 161 pack f 50;
#X obj 485 183 line~;
#X obj 470 351 delwrite~ CH6FX2 100;
#X obj 206 174 vd~ CH6FX2;
#X obj 206 129 + 40;
#X obj 389 152 / 127;
#X connect 0 0 17 0;
#X connect 1 0 2 0;
#X connect 2 0 3 0;
#X connect 3 0 19 0;
#X connect 4 0 18 0;
#X connect 6 0 5 0;
#X connect 6 0 10 0;
#X connect 7 0 11 0;
#X connect 8 0 9 0;
#X connect 9 0 6 1;
#X connect 10 0 17 0;
#X connect 11 0 20 0;
#X connect 11 1 12 0;
#X connect 12 0 13 0;
#X connect 13 0 14 0;
#X connect 14 0 15 0;
#X connect 15 0 16 0;
#X connect 16 0 10 1;
#X connect 18 0 6 0;
#X connect 19 0 4 0;
#X connect 20 0 8 0;
#X restore 386 635 pd delay-fx;
#X obj 311 680 *~ 0.5;
#X obj 404 669 *~ 0.5;
#X obj -572 262 / 64;
#X obj -426 203 / 64;
#X obj -331 669 - 96;
#X obj -521 671 - 96;
#X obj 125 672 *~ 0.5;
#X obj 212 673 *~ 0.5;
#X obj 524 212 / 127;
#X msg 524 164 127 \$1;
#X obj 524 186 -;
#X obj 524 234 pack f 50;
#X obj 524 256 line~;
#N canvas 171 216 635 407 hipass 0;
#X obj -2 35 / 127;
#X obj -2 58 * 9999;
#X obj -19 215 vcf~ 10;
#X obj -76 287 hip~;
#X obj 0 81 + 100;
#X obj -79 78 inlet~;
#X obj -2 3 inlet;
#X obj 26 135 pack f 100;
#X obj 26 157 line~;
#X obj -76 309 *~ 0.5;
#X obj -76 346 outlet~;
#X obj 0 106 t f f;
#X msg -54 165 \$1 100;
#X obj -54 187 line;
#X connect 0 0 1 0;
#X connect 1 0 4 0;
#X connect 2 0 3 0;
#X connect 3 0 9 0;
#X connect 4 0 11 0;
#X connect 5 0 2 0;
#X connect 5 0 3 0;
#X connect 6 0 0 0;
#X connect 7 0 8 0;
#X connect 8 0 2 1;
#X connect 9 0 10 0;
#X connect 11 0 12 0;
#X connect 11 1 7 0;
#X connect 12 0 13 0;
#X connect 13 0 3 1;
#X restore -281 536 pd hipass;
#X obj -165 480 t f f;
#N canvas 171 216 635 407 hipass 0;
#X obj -2 35 / 127;
#X obj -2 58 * 9999;
#X obj -19 215 vcf~ 10;
#X obj -76 287 hip~;
#X obj 0 81 + 100;
#X obj -79 78 inlet~;
#X obj -2 3 inlet;
#X obj 26 135 pack f 100;
#X obj 26 157 line~;
#X obj -76 309 *~ 0.5;
#X obj -76 346 outlet~;
#X obj 0 106 t f f;
#X msg -54 165 \$1 100;
#X obj -54 187 line;
#X connect 0 0 1 0;
#X connect 1 0 4 0;
#X connect 2 0 3 0;
#X connect 3 0 9 0;
#X connect 4 0 11 0;
#X connect 5 0 2 0;
#X connect 5 0 3 0;
#X connect 6 0 0 0;
#X connect 7 0 8 0;
#X connect 8 0 2 1;
#X connect 9 0 10 0;
#X connect 11 0 12 0;
#X connect 11 1 7 0;
#X connect 12 0 13 0;
#X connect 13 0 3 1;
#X restore -202 527 pd hipass;
#N canvas 588 32 522 657 lopass-filter 0;
#X obj -111 301 lop~;
#X obj 14 107 / 127;
#X obj -114 7 inlet~;
#X obj -111 488 outlet~;
#X obj 14 11 inlet;
#X text -117 -15 SIGNAL IN;
#X text 13 -10 CUT OFF IN;
#X obj 14 136 * 9900;
#X obj 14 190 t f f f f f;
#N canvas 506 107 491 425 bandpass-series 0;
#X obj 65 30 inlet~;
#X obj 65 208 vcf~ 10;
#X obj 84 179 sig~;
#X obj 84 150 inlet;
#X obj 201 178 sig~;
#X obj 201 121 inlet;
#X obj 179 207 vcf~ 7.5;
#X obj 284 177 sig~;
#X obj 268 206 vcf~ 5;
#X obj 284 113 inlet;
#X obj 353 177 sig~;
#X obj 353 113 inlet;
#X obj 331 206 vcf~ 2.5;
#X obj 284 147 - 50;
#X obj 201 148 - 25;
#X obj 353 147 - 75;
#X obj 181 379 outlet~;
#X obj 181 344 *~ 0.125;
#X connect 0 0 1 0;
#X connect 0 0 6 0;
#X connect 0 0 8 0;
#X connect 0 0 12 0;
#X connect 1 0 17 0;
#X connect 2 0 1 1;
#X connect 3 0 2 0;
#X connect 4 0 6 1;
#X connect 5 0 14 0;
#X connect 6 0 17 0;
#X connect 7 0 8 1;
#X connect 8 0 17 0;
#X connect 9 0 13 0;
#X connect 10 0 12 1;
#X connect 11 0 15 0;
#X connect 12 0 17 0;
#X connect 13 0 7 0;
#X connect 14 0 4 0;
#X connect 15 0 10 0;
#X connect 17 0 16 0;
#X restore -25 248 pd bandpass-series;
#X obj -111 405 *~;
#X obj 14 34 t f f;
#X obj 126 241 / 127;
#X obj 126 263 * 1;
#X obj 126 285 + 1;
#X obj 126 307 pack f 50;
#X obj 126 329 line~;
#X msg 126 192 127 \$1;
#X obj 126 214 -;
#X obj 14 158 + 100;
#X obj 14 82 line;
#X msg 14 60 \$1 50;
#X obj -111 449 *~ 0.5;
#X connect 0 0 10 0;
#X connect 1 0 7 0;
#X connect 2 0 0 0;
#X connect 2 0 9 0;
#X connect 4 0 11 0;
#X connect 7 0 19 0;
#X connect 8 0 0 1;
#X connect 8 1 9 1;
#X connect 8 2 9 2;
#X connect 8 3 9 3;
#X connect 8 4 9 4;
#X connect 9 0 0 0;
#X connect 10 0 22 0;
#X connect 11 0 21 0;
#X connect 11 1 17 0;
#X connect 12 0 13 0;
#X connect 13 0 14 0;
#X connect 14 0 15 0;
#X connect 15 0 16 0;
#X connect 16 0 10 1;
#X connect 17 0 18 0;
#X connect 18 0 12 0;
#X connect 19 0 8 0;
#X connect 20 0 1 0;
#X connect 21 0 20 0;
#X connect 22 0 3 0;
#X restore -624 504 pd lopass-filter;
#N canvas 588 32 522 657 lopass-filter 0;
#X obj -111 301 lop~;
#X obj 14 107 / 127;
#X obj -114 7 inlet~;
#X obj -111 488 outlet~;
#X obj 14 11 inlet;
#X text -117 -15 SIGNAL IN;
#X text 13 -10 CUT OFF IN;
#X obj 14 136 * 9900;
#X obj 14 190 t f f f f f;
#N canvas 506 107 491 425 bandpass-series 0;
#X obj 65 30 inlet~;
#X obj 65 208 vcf~ 10;
#X obj 84 179 sig~;
#X obj 84 150 inlet;
#X obj 201 178 sig~;
#X obj 201 121 inlet;
#X obj 179 207 vcf~ 7.5;
#X obj 284 177 sig~;
#X obj 268 206 vcf~ 5;
#X obj 284 113 inlet;
#X obj 353 177 sig~;
#X obj 353 113 inlet;
#X obj 331 206 vcf~ 2.5;
#X obj 284 147 - 50;
#X obj 201 148 - 25;
#X obj 353 147 - 75;
#X obj 181 379 outlet~;
#X obj 181 344 *~ 0.125;
#X connect 0 0 1 0;
#X connect 0 0 6 0;
#X connect 0 0 8 0;
#X connect 0 0 12 0;
#X connect 1 0 17 0;
#X connect 2 0 1 1;
#X connect 3 0 2 0;
#X connect 4 0 6 1;
#X connect 5 0 14 0;
#X connect 6 0 17 0;
#X connect 7 0 8 1;
#X connect 8 0 17 0;
#X connect 9 0 13 0;
#X connect 10 0 12 1;
#X connect 11 0 15 0;
#X connect 12 0 17 0;
#X connect 13 0 7 0;
#X connect 14 0 4 0;
#X connect 15 0 10 0;
#X connect 17 0 16 0;
#X restore -25 248 pd bandpass-series;
#X obj -111 405 *~;
#X obj 14 34 t f f;
#X obj 126 241 / 127;
#X obj 126 263 * 1;
#X obj 126 285 + 1;
#X obj 126 307 pack f 50;
#X obj 126 329 line~;
#X msg 126 192 127 \$1;
#X obj 126 214 -;
#X obj 14 158 + 100;
#X obj 14 82 line;
#X msg 14 60 \$1 50;
#X obj -111 449 *~ 0.5;
#X connect 0 0 10 0;
#X connect 1 0 7 0;
#X connect 2 0 0 0;
#X connect 2 0 9 0;
#X connect 4 0 11 0;
#X connect 7 0 19 0;
#X connect 8 0 0 1;
#X connect 8 1 9 1;
#X connect 8 2 9 2;
#X connect 8 3 9 3;
#X connect 8 4 9 4;
#X connect 9 0 0 0;
#X connect 10 0 22 0;
#X connect 11 0 21 0;
#X connect 11 1 17 0;
#X connect 12 0 13 0;
#X connect 13 0 14 0;
#X connect 14 0 15 0;
#X connect 15 0 16 0;
#X connect 16 0 10 1;
#X connect 17 0 18 0;
#X connect 18 0 12 0;
#X connect 19 0 8 0;
#X connect 20 0 1 0;
#X connect 21 0 20 0;
#X connect 22 0 3 0;
#X restore -542 532 pd lopass-filter;
#N canvas 588 32 522 657 lopass-filter 0;
#X obj -111 301 lop~;
#X obj 14 107 / 127;
#X obj -114 7 inlet~;
#X obj -111 488 outlet~;
#X obj 14 11 inlet;
#X text -117 -15 SIGNAL IN;
#X text 13 -10 CUT OFF IN;
#X obj 14 136 * 9900;
#X obj 14 190 t f f f f f;
#N canvas 506 107 491 425 bandpass-series 0;
#X obj 65 30 inlet~;
#X obj 65 208 vcf~ 10;
#X obj 84 179 sig~;
#X obj 84 150 inlet;
#X obj 201 178 sig~;
#X obj 201 121 inlet;
#X obj 179 207 vcf~ 7.5;
#X obj 284 177 sig~;
#X obj 268 206 vcf~ 5;
#X obj 284 113 inlet;
#X obj 353 177 sig~;
#X obj 353 113 inlet;
#X obj 331 206 vcf~ 2.5;
#X obj 284 147 - 50;
#X obj 201 148 - 25;
#X obj 353 147 - 75;
#X obj 181 379 outlet~;
#X obj 181 344 *~ 0.125;
#X connect 0 0 1 0;
#X connect 0 0 6 0;
#X connect 0 0 8 0;
#X connect 0 0 12 0;
#X connect 1 0 17 0;
#X connect 2 0 1 1;
#X connect 3 0 2 0;
#X connect 4 0 6 1;
#X connect 5 0 14 0;
#X connect 6 0 17 0;
#X connect 7 0 8 1;
#X connect 8 0 17 0;
#X connect 9 0 13 0;
#X connect 10 0 12 1;
#X connect 11 0 15 0;
#X connect 12 0 17 0;
#X connect 13 0 7 0;
#X connect 14 0 4 0;
#X connect 15 0 10 0;
#X connect 17 0 16 0;
#X restore -25 248 pd bandpass-series;
#X obj -111 405 *~;
#X obj 14 34 t f f;
#X obj 126 241 / 127;
#X obj 126 263 * 1;
#X obj 126 285 + 1;
#X obj 126 307 pack f 50;
#X obj 126 329 line~;
#X msg 126 192 127 \$1;
#X obj 126 214 -;
#X obj 14 158 + 100;
#X obj 14 82 line;
#X msg 14 60 \$1 50;
#X obj -111 449 *~ 0.5;
#X connect 0 0 10 0;
#X connect 1 0 7 0;
#X connect 2 0 0 0;
#X connect 2 0 9 0;
#X connect 4 0 11 0;
#X connect 7 0 19 0;
#X connect 8 0 0 1;
#X connect 8 1 9 1;
#X connect 8 2 9 2;
#X connect 8 3 9 3;
#X connect 8 4 9 4;
#X connect 9 0 0 0;
#X connect 10 0 22 0;
#X connect 11 0 21 0;
#X connect 11 1 17 0;
#X connect 12 0 13 0;
#X connect 13 0 14 0;
#X connect 14 0 15 0;
#X connect 15 0 16 0;
#X connect 16 0 10 1;
#X connect 17 0 18 0;
#X connect 18 0 12 0;
#X connect 19 0 8 0;
#X connect 20 0 1 0;
#X connect 21 0 20 0;
#X connect 22 0 3 0;
#X restore -480 424 pd lopass-filter;
#N canvas 588 32 522 657 lopass-filter 0;
#X obj -111 301 lop~;
#X obj 14 107 / 127;
#X obj -114 7 inlet~;
#X obj -111 488 outlet~;
#X obj 14 11 inlet;
#X text -117 -15 SIGNAL IN;
#X text 13 -10 CUT OFF IN;
#X obj 14 136 * 9900;
#X obj 14 190 t f f f f f;
#N canvas 506 107 491 425 bandpass-series 0;
#X obj 65 30 inlet~;
#X obj 65 208 vcf~ 10;
#X obj 84 179 sig~;
#X obj 84 150 inlet;
#X obj 201 178 sig~;
#X obj 201 121 inlet;
#X obj 179 207 vcf~ 7.5;
#X obj 284 177 sig~;
#X obj 268 206 vcf~ 5;
#X obj 284 113 inlet;
#X obj 353 177 sig~;
#X obj 353 113 inlet;
#X obj 331 206 vcf~ 2.5;
#X obj 284 147 - 50;
#X obj 201 148 - 25;
#X obj 353 147 - 75;
#X obj 181 379 outlet~;
#X obj 181 344 *~ 0.125;
#X connect 0 0 1 0;
#X connect 0 0 6 0;
#X connect 0 0 8 0;
#X connect 0 0 12 0;
#X connect 1 0 17 0;
#X connect 2 0 1 1;
#X connect 3 0 2 0;
#X connect 4 0 6 1;
#X connect 5 0 14 0;
#X connect 6 0 17 0;
#X connect 7 0 8 1;
#X connect 8 0 17 0;
#X connect 9 0 13 0;
#X connect 10 0 12 1;
#X connect 11 0 15 0;
#X connect 12 0 17 0;
#X connect 13 0 7 0;
#X connect 14 0 4 0;
#X connect 15 0 10 0;
#X connect 17 0 16 0;
#X restore -25 248 pd bandpass-series;
#X obj -111 405 *~;
#X obj 14 34 t f f;
#X obj 126 241 / 127;
#X obj 126 263 * 1;
#X obj 126 285 + 1;
#X obj 126 307 pack f 50;
#X obj 126 329 line~;
#X msg 126 192 127 \$1;
#X obj 126 214 -;
#X obj 14 158 + 100;
#X obj 14 82 line;
#X msg 14 60 \$1 50;
#X obj -111 449 *~ 0.5;
#X connect 0 0 10 0;
#X connect 1 0 7 0;
#X connect 2 0 0 0;
#X connect 2 0 9 0;
#X connect 4 0 11 0;
#X connect 7 0 19 0;
#X connect 8 0 0 1;
#X connect 8 1 9 1;
#X connect 8 2 9 2;
#X connect 8 3 9 3;
#X connect 8 4 9 4;
#X connect 9 0 0 0;
#X connect 10 0 22 0;
#X connect 11 0 21 0;
#X connect 11 1 17 0;
#X connect 12 0 13 0;
#X connect 13 0 14 0;
#X connect 14 0 15 0;
#X connect 15 0 16 0;
#X connect 16 0 10 1;
#X connect 17 0 18 0;
#X connect 18 0 12 0;
#X connect 19 0 8 0;
#X connect 20 0 1 0;
#X connect 21 0 20 0;
#X connect 22 0 3 0;
#X restore -375 425 pd lopass-filter;
#X obj -532 472 t f f;
#X obj -369 402 t f f;
#N canvas 171 216 635 407 hipass 0;
#X obj -2 35 / 127;
#X obj -2 58 * 9999;
#X obj -19 215 vcf~ 10;
#X obj -76 287 hip~;
#X obj 0 81 + 100;
#X obj -79 78 inlet~;
#X obj -2 3 inlet;
#X obj 26 135 pack f 100;
#X obj 26 157 line~;
#X obj -76 309 *~ 0.5;
#X obj -76 346 outlet~;
#X obj 0 106 t f f;
#X msg -54 165 \$1 100;
#X obj -54 187 line;
#X connect 0 0 1 0;
#X connect 1 0 4 0;
#X connect 2 0 3 0;
#X connect 3 0 9 0;
#X connect 4 0 11 0;
#X connect 5 0 2 0;
#X connect 5 0 3 0;
#X connect 6 0 0 0;
#X connect 7 0 8 0;
#X connect 8 0 2 1;
#X connect 9 0 10 0;
#X connect 11 0 12 0;
#X connect 11 1 7 0;
#X connect 12 0 13 0;
#X connect 13 0 3 1;
#X restore -99 546 pd hipass;
#N canvas 171 216 635 407 hipass 0;
#X obj -2 35 / 127;
#X obj -2 58 * 9999;
#X obj -19 215 vcf~ 10;
#X obj -76 287 hip~;
#X obj 0 81 + 100;
#X obj -79 78 inlet~;
#X obj -2 3 inlet;
#X obj 26 135 pack f 100;
#X obj 26 157 line~;
#X obj -76 309 *~ 0.5;
#X obj -76 346 outlet~;
#X obj 0 106 t f f;
#X msg -54 165 \$1 100;
#X obj -54 187 line;
#X connect 0 0 1 0;
#X connect 1 0 4 0;
#X connect 2 0 3 0;
#X connect 3 0 9 0;
#X connect 4 0 11 0;
#X connect 5 0 2 0;
#X connect 5 0 3 0;
#X connect 6 0 0 0;
#X connect 7 0 8 0;
#X connect 8 0 2 1;
#X connect 9 0 10 0;
#X connect 11 0 12 0;
#X connect 11 1 7 0;
#X connect 12 0 13 0;
#X connect 13 0 3 1;
#X restore -4 546 pd hipass;
#X obj -28 505 t f f;
#X obj -28 480 +;
#X text -577 107 LOP CV;
#X obj -529 442 +;
#X text -430 60 LOP CV;
#X obj -357 378 +;
#X text -207 101 HIP CV;
#X obj -164 460 +;
#X text -7 112 HIP CV 4;
#X obj -517 177 bang~;
#X obj -372 128 bang~;
#X obj -147 171 bang~;
#X obj 53 182 bang~;
#X obj 218 365 bang~;
#X obj 407 363 bang~;
#X obj 571 360 bang~;
#X obj 714 291 bang~;
#X obj -255 250 / 8;
#X obj 2 250 / 8;
#X obj -322 126 writesf~ 2;
#X msg -201 6 start;
#X msg -201 29 stop;
#X msg -201 52 open /Users/brizolara/Documents/teste_midiPolifonicoXodular_26_5_18
;
#X obj 112 152 flatgui/knob 32 32 1.27 127 1 1 empty empty LOP1 0 -8
1 8 5.59459e+06 1 5.58227e+06 3100 1;
#X obj 151 152 flatgui/knob 32 32 1.27 127 1 1 empty empty LOP2 0 -8
1 8 5.59459e+06 1 5.58227e+06 3100 1;
#X obj 190 152 flatgui/knob 32 32 1.27 127 1 1 empty empty HIP3 0 -8
1 8 5.59459e+06 1 5.58227e+06 0 1;
#X obj 230 152 flatgui/knob 32 32 0 127 0 1 empty empty HIP4 0 -8 1
8 5.59459e+06 1 5.58227e+06 0 1;
#X obj 270 144 flatgui/knob 48 48 0 127 0 1 empty empty MASTER 0 -8
1 8 2.90654e+06 1 5.58227e+06 2400 1;
#X obj 326 153 flatgui/knob 32 32 0 127 0 1 empty empty DLY-MIX 0 -8
1 8 5.59459e+06 1 5.58227e+06 0 1;
#X obj 364 153 flatgui/knob 32 32 0 127 0 1 empty empty DLY-RATE 0
-8 1 8 5.59459e+06 1 5.58227e+06 1600 1;
#X obj 110 203 flatgui/knob 32 32 0 127 0 1 empty empty PAN1 0 -8 1
8 5.59459e+06 1 5.58227e+06 1600 1;
#X obj 151 203 flatgui/knob 32 32 0 127 0 1 empty empty PAN2 0 -8 1
8 5.59459e+06 1 5.58227e+06 1600 1;
#X obj 190 203 flatgui/knob 32 32 0 127 0 1 empty empty PAN3 0 -8 1
8 5.59459e+06 1 5.58227e+06 1600 1;
#X obj 230 203 flatgui/knob 32 32 0 127 0 1 empty empty PAN4 0 -8 1
8 5.59459e+06 1 5.58227e+06 1600 1;
#X obj 325 203 flatgui/knob 32 32 0 127 0 1 empty empty PAN5 0 -8 1
8 5.59459e+06 1 5.58227e+06 0 1;
#X obj 364 203 flatgui/knob 32 32 0 127 0 1 empty empty PAN6 0 -8 1
8 5.59459e+06 1 5.58227e+06 3100 1;
#X obj 405 203 flatgui/knob 32 32 0 127 0 1 empty empty PAN7 0 -8 1
8 5.59459e+06 1 5.58227e+06 1600 1;
#X obj 447 203 flatgui/knob 32 32 0 127 0 1 empty empty PAN8 0 -8 1
8 5.59459e+06 1 5.58227e+06 1600 1;
#X obj 110 256 flatgui/knob 32 32 0 127 0 1 empty empty CH1 0 -8 1
8 5.59459e+06 1 5.58227e+06 1600 1;
#X obj 151 256 flatgui/knob 32 32 0 127 0 1 empty empty CH2 0 -8 1
8 5.59459e+06 1 5.58227e+06 1600 1;
#X obj 190 256 flatgui/knob 32 32 0 127 0 1 empty empty CH3 0 -8 1
8 5.59459e+06 1 5.58227e+06 1600 1;
#X obj 230 256 flatgui/knob 32 32 0 127 0 1 empty empty CH4 0 -8 1
8 5.59459e+06 1 5.58227e+06 1600 1;
#X obj 325 256 flatgui/knob 32 32 0 127 0 1 empty empty CH5 0 -8 1
8 5.59459e+06 1 5.58227e+06 1600 1;
#X obj 365 256 flatgui/knob 32 32 0 127 0 1 empty empty CH6 0 -8 1
8 5.59459e+06 1 5.58227e+06 1600 1;
#X obj 406 256 flatgui/knob 32 32 0 127 0 1 empty empty CH7 0 -8 1
8 5.59459e+06 1 5.58227e+06 0 1;
#X obj 447 256 flatgui/knob 32 32 0 127 0 1 empty empty CH8 0 -8 1
8 5.59459e+06 1 5.58227e+06 1600 1;
#X connect 3 0 4 0;
#X connect 4 0 24 0;
#X connect 4 0 24 2;
#X connect 5 0 4 1;
#X connect 6 0 5 0;
#X connect 7 0 8 0;
#X connect 8 0 25 0;
#X connect 8 0 25 2;
#X connect 9 0 8 1;
#X connect 10 0 9 0;
#X connect 11 0 12 0;
#X connect 12 0 28 0;
#X connect 12 0 28 2;
#X connect 13 0 12 1;
#X connect 14 0 13 0;
#X connect 15 0 29 0;
#X connect 15 0 29 2;
#X connect 16 0 15 1;
#X connect 17 0 16 0;
#X connect 18 0 15 0;
#X connect 19 0 26 0;
#X connect 19 0 54 0;
#X connect 19 0 200 0;
#X connect 20 0 63 0;
#X connect 21 0 19 1;
#X connect 21 0 23 1;
#X connect 22 0 21 0;
#X connect 23 0 27 0;
#X connect 23 0 54 1;
#X connect 23 0 200 1;
#X connect 24 0 173 0;
#X connect 24 1 174 0;
#X connect 25 0 175 0;
#X connect 25 1 176 0;
#X connect 26 0 162 0;
#X connect 27 0 161 0;
#X connect 28 0 170 0;
#X connect 28 1 172 0;
#X connect 29 0 179 0;
#X connect 29 1 180 0;
#X connect 30 0 35 0;
#X connect 31 0 32 0;
#X connect 32 0 184 0;
#X connect 32 1 184 1;
#X connect 33 0 24 1;
#X connect 34 0 24 3;
#X connect 35 0 31 0;
#X connect 36 0 39 0;
#X connect 37 0 38 0;
#X connect 38 0 186 0;
#X connect 38 1 186 1;
#X connect 39 0 37 0;
#X connect 40 0 25 1;
#X connect 41 0 25 3;
#X connect 42 0 45 0;
#X connect 43 0 44 0;
#X connect 44 0 188 0;
#X connect 44 1 188 1;
#X connect 45 0 43 0;
#X connect 46 0 28 1;
#X connect 47 0 28 3;
#X connect 48 0 51 0;
#X connect 49 0 50 0;
#X connect 50 0 182 0;
#X connect 50 1 182 1;
#X connect 51 0 49 0;
#X connect 52 0 29 1;
#X connect 53 0 29 3;
#X connect 63 0 22 0;
#X connect 64 0 65 0;
#X connect 65 0 76 0;
#X connect 65 0 76 2;
#X connect 66 0 65 1;
#X connect 67 0 66 0;
#X connect 68 0 73 0;
#X connect 69 0 70 0;
#X connect 70 0 71 0;
#X connect 70 0 72 0;
#X connect 70 1 71 1;
#X connect 70 1 72 1;
#X connect 71 0 76 1;
#X connect 72 0 76 3;
#X connect 73 0 69 0;
#X connect 74 0 67 0;
#X connect 76 0 153 2;
#X connect 76 0 163 0;
#X connect 76 1 154 2;
#X connect 76 1 164 0;
#X connect 79 0 19 0;
#X connect 80 0 23 0;
#X connect 89 0 90 0;
#X connect 90 0 150 0;
#X connect 90 0 150 2;
#X connect 91 0 90 1;
#X connect 92 0 91 0;
#X connect 93 0 98 0;
#X connect 94 0 95 0;
#X connect 95 0 96 0;
#X connect 95 0 97 0;
#X connect 95 1 96 1;
#X connect 95 1 97 1;
#X connect 96 0 150 1;
#X connect 97 0 150 3;
#X connect 98 0 94 0;
#X connect 99 0 92 0;
#X connect 108 0 109 0;
#X connect 109 0 151 0;
#X connect 109 0 151 2;
#X connect 110 0 109 1;
#X connect 111 0 110 0;
#X connect 112 0 117 0;
#X connect 113 0 114 0;
#X connect 114 0 115 0;
#X connect 114 0 116 0;
#X connect 114 1 115 1;
#X connect 114 1 116 1;
#X connect 115 0 151 1;
#X connect 116 0 151 3;
#X connect 117 0 113 0;
#X connect 118 0 111 0;
#X connect 123 0 124 0;
#X connect 124 0 152 0;
#X connect 124 0 152 2;
#X connect 125 0 124 1;
#X connect 126 0 125 0;
#X connect 127 0 132 0;
#X connect 128 0 129 0;
#X connect 129 0 130 0;
#X connect 129 0 131 0;
#X connect 129 1 130 1;
#X connect 129 1 131 1;
#X connect 130 0 152 1;
#X connect 131 0 152 3;
#X connect 132 0 128 0;
#X connect 133 0 126 0;
#X connect 150 0 155 2;
#X connect 150 0 157 0;
#X connect 150 1 156 2;
#X connect 150 1 158 0;
#X connect 151 0 119 0;
#X connect 151 1 120 0;
#X connect 152 0 134 0;
#X connect 152 1 135 0;
#X connect 153 0 163 0;
#X connect 154 0 164 0;
#X connect 155 0 157 0;
#X connect 156 0 158 0;
#X connect 157 0 100 0;
#X connect 158 0 101 0;
#X connect 159 0 6 0;
#X connect 160 0 10 0;
#X connect 161 0 2 0;
#X connect 162 0 1 0;
#X connect 163 0 77 0;
#X connect 164 0 78 0;
#X connect 165 0 168 0;
#X connect 166 0 167 0;
#X connect 167 0 165 0;
#X connect 168 0 169 0;
#X connect 170 0 83 0;
#X connect 171 0 170 1;
#X connect 171 1 172 1;
#X connect 172 0 84 0;
#X connect 173 0 87 0;
#X connect 174 0 88 0;
#X connect 175 0 85 0;
#X connect 176 0 86 0;
#X connect 177 0 173 1;
#X connect 177 1 174 1;
#X connect 178 0 175 1;
#X connect 178 1 176 1;
#X connect 179 0 81 0;
#X connect 180 0 82 0;
#X connect 181 0 179 1;
#X connect 181 1 180 1;
#X connect 182 0 181 0;
#X connect 184 0 177 0;
#X connect 186 0 178 0;
#X connect 188 0 171 0;
#X connect 190 0 31 0;
#X connect 191 0 37 0;
#X connect 192 0 43 0;
#X connect 193 0 49 0;
#X connect 194 0 69 0;
#X connect 195 0 94 0;
#X connect 196 0 113 0;
#X connect 197 0 128 0;
#X connect 198 0 14 0;
#X connect 199 0 17 0;
#X connect 201 0 200 0;
#X connect 202 0 200 0;
#X connect 203 0 200 0;
#X connect 204 0 184 0;
#X connect 205 0 186 0;
#X connect 206 0 188 0;
#X connect 207 0 182 0;
#X connect 208 0 20 0;
#X connect 209 0 153 1;
#X connect 209 0 154 1;
#X connect 209 0 155 1;
#X connect 209 0 156 1;
#X connect 209 0 166 0;
#X connect 210 0 153 0;
#X connect 210 0 154 0;
#X connect 210 0 156 0;
#X connect 210 0 155 0;
#X connect 211 0 34 0;
#X connect 211 0 33 0;
#X connect 212 0 40 0;
#X connect 212 0 41 0;
#X connect 213 0 46 0;
#X connect 213 0 47 0;
#X connect 214 0 52 0;
#X connect 214 0 53 0;
#X connect 215 0 71 0;
#X connect 215 0 72 0;
#X connect 216 0 96 0;
#X connect 216 0 97 0;
#X connect 217 0 115 0;
#X connect 217 0 116 0;
#X connect 218 0 130 0;
#X connect 218 0 131 0;
#X connect 219 0 159 0;
#X connect 220 0 160 0;
#X connect 221 0 198 0;
#X connect 222 0 199 0;
#X connect 223 0 74 0;
#X connect 224 0 99 0;
#X connect 225 0 118 0;
#X connect 226 0 133 0;
#X coords 0 -1 1 1 400 200 2 100 100;
#X restore 33 328 pd output-mixer;
#X obj 33 6 note;
#X obj 55 50 note;
#X obj 77 96 note;
#X obj 99 152 note;
#N canvas 529 110 827 456 MIDI_inputs 1;
#X floatatom 47 93 3 0 0 0 - - -, f 3;
#X obj 31 67 ctlin;
#X text 86 27 This is the mapping of a Arturia Minilab;
#X obj 31 211 s vol;
#X obj 31 165 spigot;
#X obj 47 138 tgl 15 0 empty empty empty 17 7 0 10 -262144 -1 -1 1
1;
#X obj 47 113 == 7;
#X obj 31 187 / 128;
#X floatatom 211 95 3 0 0 0 - - -, f 3;
#X obj 195 69 ctlin;
#X obj 195 167 spigot;
#X obj 211 140 tgl 15 0 empty empty empty 17 7 0 10 -262144 -1 -1 0
1;
#X obj 195 189 / 128;
#X floatatom 296 95 3 0 0 0 - - -, f 3;
#X obj 280 69 ctlin;
#X obj 280 167 spigot;
#X obj 296 140 tgl 15 0 empty empty empty 17 7 0 10 -262144 -1 -1 0
1;
#X obj 280 189 / 128;
#X floatatom 388 95 3 0 0 0 - - -, f 3;
#X obj 372 69 ctlin;
#X obj 372 167 spigot;
#X obj 388 140 tgl 15 0 empty empty empty 17 7 0 10 -262144 -1 -1 0
1;
#X obj 372 189 / 128;
#X floatatom 214 292 3 0 0 0 - - -, f 3;
#X obj 198 266 ctlin;
#X obj 198 364 spigot;
#X obj 214 337 tgl 15 0 empty empty empty 17 7 0 10 -262144 -1 -1 0
1;
#X obj 198 386 / 128;
#X floatatom 300 292 3 0 0 0 - - -, f 3;
#X obj 284 266 ctlin;
#X obj 284 364 spigot;
#X obj 300 337 tgl 15 0 empty empty empty 17 7 0 10 -262144 -1 -1 0
1;
#X obj 284 386 / 128;
#X floatatom 389 292 3 0 0 0 - - -, f 3;
#X obj 373 266 ctlin;
#X obj 373 364 spigot;
#X obj 389 337 tgl 15 0 empty empty empty 17 7 0 10 -262144 -1 -1 0
1;
#X obj 373 386 / 128;
#X obj 195 213 s pitch-cv;
#X obj 280 213 s timbre-cv;
#X text 370 231 not used;
#X text 372 428 not used;
#X obj 530 123 cnv 15 250 180 empty empty ADSR_Envelope 20 12 0 14
-4034 -66577 0;
#X obj 551 151 ctlin 73;
#X obj 680 149 ctlin 75;
#X obj 551 226 ctlin 79;
#X obj 680 225 ctlin 72;
#X obj 551 249 expr $f1/127.;
#X obj 551 199 s atk;
#X obj 680 197 s dec;
#X obj 551 273 s sus;
#X obj 680 272 s rel;
#X obj 551 174 expr $f1/127.;
#X obj 680 172 expr $f1/127.;
#X obj 680 248 expr $f1/127.;
#X text 532 300 Everything here is being sent normalized;
#X obj 211 115 == 74;
#X obj 296 115 == 71;
#X obj 388 115 == 76;
#X obj 214 312 == 18;
#X obj 300 312 == 19;
#X obj 389 312 == 16;
#X obj 198 410 s modu-cv;
#X obj 284 410 s fm-i-cv;
#X obj 372 213 s flux-cv;
#X obj 373 410 s p-scan-cv;
#X obj 16 311 bendin;
#X obj 16 361 s bend;
#X obj 16 337 expr ($f1 - 8192)*2/8192.;
#X connect 0 0 6 0;
#X connect 1 0 4 0;
#X connect 1 1 0 0;
#X connect 4 0 7 0;
#X connect 5 0 4 1;
#X connect 6 0 5 0;
#X connect 7 0 3 0;
#X connect 8 0 56 0;
#X connect 9 0 10 0;
#X connect 9 1 8 0;
#X connect 10 0 12 0;
#X connect 11 0 10 1;
#X connect 12 0 38 0;
#X connect 13 0 57 0;
#X connect 14 0 15 0;
#X connect 14 1 13 0;
#X connect 15 0 17 0;
#X connect 16 0 15 1;
#X connect 17 0 39 0;
#X connect 18 0 58 0;
#X connect 19 0 20 0;
#X connect 19 1 18 0;
#X connect 20 0 22 0;
#X connect 21 0 20 1;
#X connect 22 0 64 0;
#X connect 23 0 59 0;
#X connect 24 0 25 0;
#X connect 24 1 23 0;
#X connect 25 0 27 0;
#X connect 26 0 25 1;
#X connect 27 0 62 0;
#X connect 28 0 60 0;
#X connect 29 0 30 0;
#X connect 29 1 28 0;
#X connect 30 0 32 0;
#X connect 31 0 30 1;
#X connect 32 0 63 0;
#X connect 33 0 61 0;
#X connect 34 0 35 0;
#X connect 34 1 33 0;
#X connect 35 0 37 0;
#X connect 36 0 35 1;
#X connect 37 0 65 0;
#X connect 43 0 52 0;
#X connect 44 0 53 0;
#X connect 45 0 47 0;
#X connect 46 0 54 0;
#X connect 47 0 50 0;
#X connect 52 0 48 0;
#X connect 53 0 49 0;
#X connect 54 0 51 0;
#X connect 56 0 11 0;
#X connect 57 0 16 0;
#X connect 58 0 21 0;
#X connect 59 0 26 0;
#X connect 60 0 31 0;
#X connect 61 0 36 0;
#X connect 66 0 68 0;
#X connect 68 0 67 0;
#X restore 228 -75 pd MIDI_inputs;
#X obj 359 -84 r atk;
#X obj 396 -84 r dec;
#X obj 433 -84 r sus;
#X obj 475 -84 r rel;
#X obj 359 -61 * 300;
#X obj 396 -61 * 500;
#X obj 475 -60 * 1000;
#X obj 400 113 loadbang;
#X msg 400 134 \; vol 0.3 \; atk 0.015 \; dec 0.05 \; sus 0.3 \; rel
0.2;
#X obj 310 -41 r vol;
#X connect 0 0 12 0;
#X connect 0 1 12 1;
#X connect 1 0 13 0;
#X connect 2 0 3 1;
#X connect 3 0 14 0;
#X connect 4 0 8 0;
#X connect 5 0 9 0;
#X connect 6 0 10 0;
#X connect 7 0 11 0;
#X connect 12 0 1 0;
#X connect 12 1 1 1;
#X connect 12 2 1 2;
#X connect 13 0 15 0;
#X connect 13 1 16 0;
#X connect 13 2 17 0;
#X connect 13 3 18 0;
#X connect 15 0 3 0;
#X connect 16 0 3 0;
#X connect 17 0 3 0;
#X connect 18 0 3 0;
#X connect 20 0 24 0;
#X connect 21 0 25 0;
#X connect 22 0 6 0;
#X connect 23 0 26 0;
#X connect 24 0 4 0;
#X connect 25 0 5 0;
#X connect 26 0 7 0;
#X connect 27 0 28 0;
#X connect 29 0 2 0;
