#N canvas 725 125 638 523 10;
#X obj 33 -123 notein;
#X obj 33 -56 pack 0 0 0;
#X obj 310 -20 vsl 15 128 0 1 0 0 empty empty empty 0 -9 0 10 -262144
-1 -1 5400 1;
#X obj 35 237 *~;
#X obj 35 270 dac~;
#X obj 382 -18 vsl 20 80 0 300 0 0 empty empty atk 0 -9 0 10 -4034
-1 -1 100 1;
#X obj 411 -17 vsl 20 80 0 500 0 0 empty empty dec 0 -9 0 10 -4034
-1 -1 200 1;
#X obj 441 -17 vsl 20 80 0 1 0 0 empty empty sus 0 -9 0 10 -4034 -1
-1 1800 1;
#X obj 490 -17 vsl 20 80 0 1000 0 0 empty empty rel 0 -9 0 10 -4034
-1 -1 1400 1;
#X obj 382 71 s a;
#X obj 411 71 s d;
#X obj 441 71 s s;
#X obj 490 71 s r;
#X obj 33 -89 poly 4 1;
#X obj 33 -26 route 1 2 3 4;
#X obj 7 58 note;
#X obj 50 84 note;
#X obj 96 86 note;
#X obj 142 80 note;
#X connect 0 0 13 0;
#X connect 0 1 13 1;
#X connect 1 0 14 0;
#X connect 2 0 3 1;
#X connect 3 0 4 1;
#X connect 3 0 4 0;
#X connect 5 0 9 0;
#X connect 6 0 10 0;
#X connect 7 0 11 0;
#X connect 8 0 12 0;
#X connect 13 0 1 0;
#X connect 13 1 1 1;
#X connect 13 2 1 2;
#X connect 14 0 15 0;
#X connect 14 1 16 0;
#X connect 14 2 17 0;
#X connect 14 3 18 0;
#X connect 15 0 3 0;
#X connect 16 0 3 0;
#X connect 17 0 3 0;
#X connect 18 0 3 0;
