#N canvas 102 308 657 453 10;
#X floatatom -40 -371 5 0 0 0 - - -;
#N canvas 211 165 572 389 FM 0;
#X obj 117 91 *~;
#X floatatom 110 27 5 0 0 0 - - -;
#X floatatom 163 86 5 0 0 0 - - -;
#X obj 118 124 -~;
#X floatatom 164 124 5 0 0 0 - - -;
#X obj 33 132 +~;
#X floatatom 62 97 5 0 0 0 - - -;
#X obj 66 166 osc~;
#X obj 117 168 osc~;
#X obj 65 210 +~;
#X floatatom 107 204 5 0 0 0 - - -;
#X obj 72 263 outlet~;
#X obj 24 41 inlet;
#X obj 112 53 tabosc4~ pitchmod2;
#X connect 0 0 3 0;
#X connect 0 0 5 0;
#X connect 1 0 13 0;
#X connect 2 0 0 1;
#X connect 3 0 8 0;
#X connect 4 0 3 1;
#X connect 5 0 7 0;
#X connect 6 0 5 1;
#X connect 7 0 9 0;
#X connect 8 0 9 0;
#X connect 9 0 11 0;
#X connect 10 0 9 1;
#X connect 12 0 6 0;
#X connect 13 0 0 0;
#X restore -52 -188 pd FM;
#X obj -12 -160 *~;
#X obj -39 -216 osc~;
#X obj -34 -101 freeverb~;
#X msg -126 -131 roomsize 0.3;
#X text -252 -196 Clique em [pd FM] para \; ver essa FM super interessante...
;
#X floatatom 18 -370 5 0 0 0 - - -;
#X obj -40 -433 inlet;
#X obj -28 -36 outlet~;
#N canvas 421 224 293 344 adsr 0;
#X obj 69 269 vline~;
#X obj 66 205 pack f f f f;
#X msg 171 233 0 \$2;
#X obj 172 201 pack f f;
#X obj 66 161 / 127;
#X msg 66 233 \$1 \$2 \, \$4 \$3 \$2;
#X obj 101 33 inlet;
#X obj 172 173 sel 0;
#X obj 52 314 outlet~;
#X obj 249 189 r r;
#X obj 89 126 r a;
#X obj 112 133 r d;
#X obj 135 140 r s;
#X connect 0 0 8 0;
#X connect 1 0 5 0;
#X connect 2 0 0 0;
#X connect 3 0 2 0;
#X connect 4 0 1 0;
#X connect 5 0 0 0;
#X connect 6 0 4 0;
#X connect 6 0 7 0;
#X connect 7 0 3 0;
#X connect 9 0 3 1;
#X connect 10 0 1 1;
#X connect 11 0 1 2;
#X connect 12 0 1 3;
#X restore 18 -216 pd adsr;
#N canvas 885 305 282 231 midi_to_microtonal_freq 0;
#X floatatom -215 135 5 0 0 0 - - -;
#X floatatom -215 177 5 0 0 0 - - -;
#X obj -215 155 * 261.6;
#X obj -110 71 expr pow(2 \, (1/$f1));
#X obj -215 113 expr pow($f2 \, $f1);
#X floatatom -110 49 5 0 0 1 graus_por_oitava - -;
#X floatatom -110 93 5 0 0 0 - - -;
#X floatatom -215 92 5 0 0 0 - - -;
#X obj -110 6 loadbang;
#X obj -215 9 inlet;
#X obj -215 206 outlet;
#X obj -215 69 - 48;
#X obj -171 28 r steps_per_octave;
#X connect 0 0 2 0;
#X connect 1 0 10 0;
#X connect 2 0 1 0;
#X connect 3 0 6 0;
#X connect 4 0 0 0;
#X connect 5 0 3 0;
#X connect 6 0 4 1;
#X connect 7 0 4 0;
#X connect 8 0 5 0;
#X connect 9 0 11 0;
#X connect 11 0 7 0;
#X connect 12 0 5 0;
#X restore -39 -248 pd midi_to_microtonal_freq;
#X obj -68 -346 + 0;
#X floatatom -89 -370 5 0 0 0 - - -;
#X obj -102 -395 r bend;
#X obj -167 -395 loadbang;
#X obj -138 -369 bng 15 250 50 0 empty empty empty 17 7 0 10 -262144
-1 -1;
#X obj -25 -279 + 0;
#X obj -10 -407 unpack 0 0 0 0;
#X floatatom 65 -273 5 0 0 2 transposition - -;
#X floatatom 106 -410 5 0 0 0 - - -;
#X obj 98 -337 == 0;
#X floatatom 65 -334 5 0 0 0 - - -;
#X obj 65 -312 spigot;
#X text 128 -328 This prevents a zero velocity note from \; overwriting
the stored transposition with a 0;
#X connect 0 0 12 1;
#X connect 0 0 16 0;
#X connect 1 0 2 0;
#X connect 2 0 4 0;
#X connect 2 0 4 1;
#X connect 2 0 9 0;
#X connect 5 0 4 0;
#X connect 7 0 10 0;
#X connect 7 0 21 0;
#X connect 8 0 18 0;
#X connect 10 0 2 1;
#X connect 11 0 3 0;
#X connect 11 0 1 0;
#X connect 12 0 17 0;
#X connect 13 0 12 0;
#X connect 14 0 13 0;
#X connect 15 0 16 0;
#X connect 16 0 13 0;
#X connect 17 0 11 0;
#X connect 18 0 0 0;
#X connect 18 1 7 0;
#X connect 18 2 22 0;
#X connect 18 3 20 0;
#X connect 19 0 17 1;
#X connect 21 0 23 1;
#X connect 22 0 23 0;
#X connect 23 0 19 0;
